Coordinates
version=1
nRows=32
nColumns=22
inDegrees=yes

Units are S.I. units (second, meters, Newtons, ...)
If the header above contains a line with 'inDegrees', this indicates whether rotational values are in degrees (yes) or radians (no).

endheader
time	pelvis_tilt	pelvis_list	pelvis_rotation	pelvis_tx	pelvis_ty	pelvis_tz	hip_flexion_r	hip_adduction_r	hip_rotation_r	knee_angle_r	ankle_angle_r	subtalar_angle_r	hip_flexion_l	hip_adduction_l	hip_rotation_l	knee_angle_l	ankle_angle_l	subtalar_angle_l	lumbar_extension	lumbar_bending	lumbar_rotation
      2.79000000	      6.45118612	     -1.62095274	      9.96956334	     -0.58935436	      0.93809124	      0.04430144	     21.69030727	     -0.93573183	     -9.54643209	    -29.66521918	      2.17508729	      5.55306173	    -13.99287931	      1.39957247	     -1.42226143	    -12.72460444	     25.52358117	    -10.42507006	    -13.28678406	      3.81880533	    -16.92951613
      2.80000000	      6.46196395	     -1.54980358	     10.37603860	     -0.57846589	      0.93538686	      0.04396385	     21.79650124	     -0.76823510	     -9.49266167	    -26.24838346	      1.75500099	      6.04457216	    -14.74104850	      1.23036936	     -1.29216733	    -12.75710747	     26.22605521	    -10.51604591	    -13.32733663	      3.71502913	    -17.25128396
      2.81000000	      6.46864059	     -1.48487627	     10.75233350	     -0.56739025	      0.93246255	      0.04366515	     21.84413313	     -0.58382626	     -9.34093673	    -22.94299489	      1.40298029	      6.58536776	    -15.48025447	      1.05795658	     -1.15959178	    -12.82660100	     26.95061988	    -10.64620990	    -13.35148350	      3.61840390	    -17.56912373
      2.82000000	      6.45174434	     -1.43582929	     11.14404298	     -0.55624866	      0.92930742	      0.04335274	     21.88988119	     -0.40993602	     -9.18471851	    -19.85882733	      1.10049642	      6.91848326	    -16.08552228	      0.85751434	     -1.05746470	    -13.11456855	     27.75151299	    -10.73005457	    -13.35346990	      3.54167189	    -17.88576312
      2.83000000	      6.49333277	     -1.40954981	     11.51125397	     -0.54488930	      0.92612694	      0.04305514	     21.85974220	     -0.21336170	     -9.02813477	    -17.08629744	      0.96236325	      7.35191374	    -16.75329026	      0.62438283	     -0.93876553	    -13.42657284	     28.51189480	    -10.82678497	    -13.40886014	      3.50735708	    -18.15781145
      2.84000000	      6.55047509	     -1.42316219	     11.86389271	     -0.53332550	      0.92289708	      0.04273614	     21.84095495	      0.00142273	     -8.95081396	    -14.74641316	      0.97463390	      7.75715523	    -17.40819869	      0.34707699	     -0.81710694	    -13.80849970	     29.25113419	    -10.88771653	    -13.46076618	      3.53542851	    -18.41227193
      2.85000000	      6.61017393	     -1.50599821	     12.20863961	     -0.52155411	      0.91963663	      0.04239820	     21.88757157	      0.25406419	     -9.06586070	    -12.94971158	      1.13030613	      7.97953818	    -17.99879807	     -0.00740549	     -0.72314481	    -14.32211402	     30.02315357	    -10.89048775	    -13.48797303	      3.65583882	    -18.61815632
      2.86000000	      6.73410579	     -1.64358505	     12.53018621	     -0.50952194	      0.91654023	      0.04209749	     21.91698518	      0.56583445	     -9.30896935	    -11.70722593	      1.39626786	      8.17545216	    -18.64407876	     -0.43378406	     -0.65205698	    -14.87091958	     30.67067115	    -10.87130433	    -13.56574504	      3.85244985	    -18.78036295
      2.87000000	      6.93451923	     -1.86224029	     12.80901896	     -0.49720336	      0.91366518	      0.04177707	     21.93133312	      0.96451472	     -9.71511674	    -11.05830550	      1.66080952	      8.29875471	    -19.34830103	     -0.94305840	     -0.58504634	    -15.47684988	     31.17803158	    -10.81175570	    -13.69358235	      4.17704715	    -18.83481301
      2.88000000	      7.14956595	     -2.15096285	     13.05794369	     -0.48456337	      0.91096576	      0.04146699	     21.96916021	      1.43067894	    -10.21709161	    -10.95661321	      1.89662786	      8.22886520	    -20.05292242	     -1.52110388	     -0.54570442	    -16.12070431	     31.57403370	    -10.70057084	    -13.79373913	      4.58932393	    -18.85749424
      2.89000000	      7.36663268	     -2.52766405	     13.26468626	     -0.47158589	      0.90844196	      0.04116636	     22.05346679	      1.97959607	    -10.77472500	    -11.38885701	      2.02330276	      7.92637417	    -20.73428701	     -2.17367054	     -0.52839863	    -16.82332004	     31.82159183	    -10.54833532	    -13.84755061	      5.10829547	    -18.80943662
      2.90000000	      7.58541775	     -2.97428219	     13.40300004	     -0.45820918	      0.90614402	      0.04091443	     22.15990403	      2.60692080	    -11.32316659	    -12.26670831	      1.89928352	      7.15226567	    -21.42767795	     -2.87301611	     -0.56789179	    -17.53031258	     31.84341687	    -10.22476190	    -13.85089766	      5.70610618	    -18.69471899
      2.91000000	      7.75037336	     -3.47019903	     13.49845744	     -0.44453533	      0.90401038	      0.04070453	     22.33561310	      3.27254407	    -11.79846197	    -13.49856156	      1.53547010	      6.24557707	    -22.00288723	     -3.59523655	     -0.63634923	    -18.37050042	     31.67918535	     -9.89966739	    -13.76278723	      6.34082100	    -18.51849784
      2.92000000	      7.87061581	     -4.01246311	     13.54531830	     -0.43051906	      0.90210659	      0.04056524	     22.54590430	      3.99004230	    -12.14505361	    -14.95753543	      0.91035480	      5.15623894	    -22.48844778	     -4.34145951	     -0.73649558	    -19.30788764	     31.26806120	     -9.48821636	    -13.58465278	      7.00865808	    -18.29372251
      2.93000000	      7.93638879	     -4.59545497	     13.54555497	     -0.41620192	      0.90045923	      0.04050764	     22.79274762	      4.75841353	    -12.34539436	    -16.54204561	      0.05916851	      3.97853228	    -22.85343668	     -5.10483252	     -0.84530747	    -20.37040212	     30.56476234	     -8.99018806	    -13.31409916	      7.69776217	    -18.02822797
      2.94000000	      7.94752766	     -5.20962081	     13.50221734	     -0.40159932	      0.89910465	      0.04054265	     23.06998214	      5.57398707	    -12.38746050	    -18.17854218	     -0.90769456	      2.78329899	    -23.09486940	     -5.88060191	     -0.94832563	    -21.55000440	     29.55884141	     -8.37929100	    -12.95283227	      8.39310800	    -17.71652354
      2.95000000	      7.92491734	     -5.82260923	     13.42995618	     -0.38677852	      0.89811757	      0.04063959	     23.33709793	      6.41088448	    -12.26530993	    -19.80560130	     -1.81616240	      1.63358085	    -23.21317086	     -6.64574475	     -1.00347230	    -22.86965565	     28.15338163	     -7.63142448	    -12.53790467	      9.06560675	    -17.38115867
      2.96000000	      7.88986085	     -6.42196951	     13.32935684	     -0.37179277	      0.89754055	      0.04078277	     23.56119232	      7.26176653	    -12.01658248	    -21.39146700	     -2.52518191	      0.60339600	    -23.21532460	     -7.38997114	     -0.99270148	    -24.33591117	     26.34183393	     -6.73714753	    -12.10146472	      9.70813338	    -17.02334831
      2.97000000	      7.87252885	     -6.97380358	     13.22479883	     -0.35672845	      0.89741469	      0.04091578	     23.69100709	      8.09076000	    -11.67140515	    -22.91033004	     -2.92498031	     -0.26795108	    -23.10892107	     -8.09671213	     -0.90051532	    -25.96117773	     24.09576667	     -5.69625485	    -11.69076110	     10.29296658	    -16.66337372
      2.98000000	      7.88992028	     -7.43721954	     13.12394470	     -0.34168891	      0.89776094	      0.04100647	     23.68255346	      8.86093800	    -11.23236008	    -24.32923979	     -3.00330580	     -0.95865909	    -22.89721895	     -8.72306211	     -0.67985435	    -27.74203856	     21.38338698	     -4.55743025	    -11.34585186	     10.78017428	    -16.32638988
      2.99000000	      7.98000684	     -7.86494847	     13.08864558	     -0.32664986	      0.89856896	      0.04092868	     23.47532854	      9.59608536	    -10.88071343	    -25.59473093	     -2.62483139	     -1.53246362	    -22.60315175	     -9.35029276	     -0.30443683	    -29.65040753	     18.24518223	     -3.24769042	    -11.07273718	     11.25249044	    -16.02561428
      3.00000000	      8.11265379	     -8.18246262	     13.08384674	     -0.31180764	      0.89977138	      0.04075713	     23.09252098	     10.23533976	    -10.51097668	    -26.70212642	     -2.00590216	     -1.97274733	    -22.17480286	     -9.87453755	      0.24262355	    -31.70962431	     14.71623895	     -1.93263119	    -10.89307456	     11.60935247	    -15.76805407
      3.01000000	      8.28392860	     -8.39795418	     13.13652325	     -0.29722914	      0.90129181	      0.04045232	     22.53610489	     10.76816099	    -10.18828089	    -27.63302158	     -1.14833027	     -2.32574747	    -21.59038777	    -10.30534789	      0.98148687	    -33.91559158	     10.90579239	     -0.63458821	    -10.80186189	     11.86373292	    -15.56663773
      3.02000000	      8.47639719	     -8.52168693	     13.24968974	     -0.28298104	      0.90304435	      0.04000267	     21.83020182	     11.18706406	     -9.96444245	    -28.37996265	     -0.14773450	     -2.63665755	    -20.82074118	    -10.63809109	      1.90807568	    -36.26490959	      6.96417655	      0.58862297	    -10.78431700	     12.02624515	    -15.41042956
      3.03000000	      8.66604553	     -8.57842480	     13.42759650	     -0.26913169	      0.90490703	      0.03944333	     21.01622274	     11.50973372	     -9.84854274	    -28.93606928	      0.91805252	     -2.94020078	    -19.81751529	    -10.89789140	      2.96525945	    -38.78313580	      3.08957173	      1.71113323	    -10.82056556	     12.11958808	    -15.30718012
      3.04000000	      8.82884669	     -8.59014874	     13.66237702	     -0.25572348	      0.90678513	      0.03882273	     20.14000524	     11.75289739	     -9.85093162	    -29.31215982	      1.98370578	     -3.25140508	    -18.54874879	    -11.10140451	      4.08790491	    -41.46827715	     -0.50590273	      2.70694829	    -10.88483628	     12.15801825	    -15.24856464
      3.05000000	      8.94714880	     -8.55651647	     13.96925455	     -0.24277374	      0.90863511	      0.03811147	     19.22298796	     11.90625696	     -9.98001344	    -29.50105925	      2.99261246	     -3.51319891	    -17.00631011	    -11.23409704	      5.28456619	    -44.28778768	     -3.60648424	      3.42240369	    -10.95722006	     12.14334083	    -15.26790051
      3.06000000	      9.00289936	     -8.59211713	     14.27242114	     -0.23020510	      0.91032057	      0.03752645	     18.33123098	     12.12364633	    -10.15441673	    -29.52258869	      3.90660435	     -3.85139769	    -15.18154878	    -11.43676534	      6.31377741	    -47.22007629	     -6.05833918	      4.17227203	    -10.99947045	     12.18321118	    -15.26590032
      3.07000000	      9.01049236	     -8.65291138	     14.59347317	     -0.21798046	      0.91192856	      0.03699209	     17.42920197	     12.34807855	    -10.41745509	    -29.36618232	      4.69790007	     -4.15268326	    -13.14099516	    -11.64700445	      7.26357384	    -50.15935002	     -7.70654326	      4.71640583	    -11.02466036	     12.23154622	    -15.25344904
      3.08000000	      8.96862362	     -8.75931303	     14.87585216	     -0.20602171	      0.91345423	      0.03662451	     16.53178478	     12.63044690	    -10.67263302	    -29.05369626	      5.37229559	     -4.45679971	    -10.92927951	    -11.89353660	      8.03779645	    -53.03131035	     -8.49480125	      5.14913869	    -11.02662975	     12.30000292	    -15.19922358
      3.09000000	      8.90451020	     -8.90908431	     15.09785840	     -0.19423946	      0.91497988	      0.03644010	     15.60289750	     12.97996826	    -10.90961496	    -28.58551643	      5.91785355	     -4.73145303	     -8.62797316	    -12.18087864	      8.62629944	    -55.74795323	     -8.42877138	      5.40484659	    -11.02690589	     12.38789575	    -15.06048172
      3.10000000	      8.79333698	     -9.06210990	     15.21236159	     -0.18259058	      0.91651221	      0.03652145	     14.66761580	     13.37839086	    -10.97816613	    -27.99657997	      6.38551893	     -5.04430769	     -6.25534968	    -12.46375399	      9.00019747	    -58.25388105	     -7.64584399	      5.43790491	    -11.00487471	     12.43470475	    -14.87774174
